SplineFontDB: 3.2
FontName: gech
FullName: gech
FamilyName: gech
Weight: Regular
Copyright: Copyright (c) 2022, Ferhat Gecdogan
UComments: "gech font much better with gechland!+AAoACgAA--> https://ferhatgec.github.io/land/"
Version: 0.1
ItalicAngle: 0
UnderlinePosition: -102
UnderlineWidth: 51
Ascent: 819
Descent: 205
InvalidEm: 0
LayerCount: 2
Layer: 0 0 "Back" 1
Layer: 1 0 "Fore" 0
HasVMetrics: 1
XUID: [1021 1016 970603565 5172]
FSType: 0
OS2Version: 0
OS2_WeightWidthSlopeOnly: 0
OS2_UseTypoMetrics: 1
CreationTime: 1642666578
ModificationTime: 1642715713
PfmFamily: 17
TTFWeight: 400
TTFWidth: 5
LineGap: 94
VLineGap: 94
OS2TypoAscent: 0
OS2TypoAOffset: 1
OS2TypoDescent: 0
OS2TypoDOffset: 1
OS2TypoLinegap: 94
OS2WinAscent: 0
OS2WinAOffset: 1
OS2WinDescent: 0
OS2WinDOffset: 1
HheadAscent: 0
HheadAOffset: 1
HheadDescent: 0
HheadDOffset: 1
OS2Vendor: 'PfEd'
MarkAttachClasses: 1
DEI: 91125

StartChar: A
Encoding: 65 65 0
Width: 1177
Flags: HW
HStem: -205 22G<76.5 174.5 1001.5 1100.5> -4 98<174.5 1001.5> 721 98<173.5 1001.5>
VStem: 76.5 98<-205 -4 94 721> 1001.5 98<-205 -4 94 721>
LayerCount: 2
Fore
SplineSet
76.5 -205 m 29
 76.5 721 l 25
 173.5 721 l 25
 174.5 94 l 25
 1001.5 94 l 25
 1001.5 -4 l 25
 174.5 -4 l 25
 174.5 -205 l 25
 76.5 -205 l 29
76.5 819 m 25
 1100.5 819 l 25
 1100.5 -205 l 25
 1001.5 -205 l 25
 1001.5 721 l 25
 693.166666667 721 384.833333333 721 76.5 721 c 25
 76.5 819 l 25
EndSplineSet
Validated: 5
EndChar

StartChar: b
Encoding: 98 98 1
Width: 800
Flags: HW
HStem: -205 99<260.5 539.5> 257 96<260.5 539.5> 799 20G<162.5 260.5>
VStem: 162.5 98<-106 257 353 819> 539.5 98<-106 257>
LayerCount: 2
Fore
SplineSet
162.5 -205 m 1
 162.5 136.333007812 162.5 477.666992188 162.5 819 c 1
 195.166992188 819 227.833007812 819 260.5 819 c 1
 260.5 663.666992188 260.5 508.333007812 260.5 353 c 1
 569.166992188 353 328.833007812 353 637.5 353 c 5
 637.5 167 637.5 -19 637.5 -205 c 5
 296.166992188 -205 503.833007812 -205 162.5 -205 c 1
539.5 -106 m 5
 539.5 15 539.5 136 539.5 257 c 5
 263.5 257 536.5 257 260.5 257 c 1
 260.5 136 260.5 15 260.5 -106 c 1
 536.5 -106 263.5 -106 539.5 -106 c 5
EndSplineSet
Validated: 1
EndChar

StartChar: c
Encoding: 99 99 2
Width: 800
Flags: HW
HStem: -205 154<564.5 663.5> -205 99<234.5 564.5> 304 138<564.5 663.5> 344 98<234.5 564.5>
VStem: 136.5 98<-106 344> 564.5 99<-106 -51 304 344>
LayerCount: 2
Fore
SplineSet
136.5 -205 m 1x4c
 136.5 10.6669921875 136.5 226.333007812 136.5 442 c 1x5c
 477.833007812 442 322.166992188 442 663.5 442 c 5
 663.5 396 663.5 350 663.5 304 c 5
 630.5 304 597.5 304 564.5 304 c 5x2c
 564.5 317.333007812 564.5 330.666992188 564.5 344 c 5
 288.833007812 344 510.166992188 344 234.5 344 c 1
 234.5 194 234.5 44 234.5 -106 c 1
 510.166992188 -106 288.833007812 -106 564.5 -106 c 5x5c
 564.5 -87.6669921875 564.5 -69.3330078125 564.5 -51 c 5
 597.5 -51 630.5 -51 663.5 -51 c 5
 663.5 -102.333007812 663.5 -153.666992188 663.5 -205 c 5x8c
 322.166992188 -205 477.833007812 -205 136.5 -205 c 1x4c
EndSplineSet
Validated: 1
EndChar

StartChar: d
Encoding: 100 100 3
Width: 800
Flags: HW
HStem: -205 99<209 590> 318 99<209 590> 799 20G<590 689>
VStem: 111 98<-106 318> 590 99<-106 318 417 819>
LayerCount: 2
Fore
SplineSet
590 417 m 5
 590 551 590 685 590 819 c 5
 623 819 656 819 689 819 c 5
 689 477.666992188 689 136.333007812 689 -205 c 5
 347.666992188 -205 452.333007812 -205 111 -205 c 1
 111 2.3330078125 111 209.666992188 111 417 c 1
 419.333007812 417 281.666992188 417 590 417 c 5
590 -106 m 5
 590 35.3330078125 590 176.666992188 590 318 c 5
 314.333007812 318 484.666992188 318 209 318 c 1
 209 176.666992188 209 35.3330078125 209 -106 c 1
 484.666992188 -106 314.333007812 -106 590 -106 c 5
EndSplineSet
Validated: 1
EndChar

StartChar: e
Encoding: 101 101 4
Width: 800
Flags: HW
HStem: -205 98<253.811 544.811> 15 58<254.811 542.811> 201 96<255.189 543.189>
VStem: 156.811 98<-107 15 73 201> 542.811 100<-107 -51 74 201>
LayerCount: 2
Fore
SplineSet
542.810546875 74 m 4
 542.810546875 111 l 0
 543.189453125 201 l 1
 643.189453125 297 l 25
 642.810546875 15 l 1
 545.810546875 15 l 1
 254.810546875 15 l 9
 253.810546875 -107 l 1
 544.810546875 -107 l 25
 543.810546875 -51 l 25
 641.810546875 -51 l 25
 640.810546875 -205 l 25
 156.810546875 -205 l 1
 157.189453125 299 l 1
 643.189453125 297 l 1
 543.189453125 201 l 1
 534.810546875 201 l 0
 506.189453125 201 l 0
 255.189453125 201 l 1
 254.810546875 73 l 1
 255.810546875 73.162109375 l 0
 542.810546875 74 l 4
EndSplineSet
Validated: 5
EndChar

StartChar: f
Encoding: 102 102 5
Width: 800
Flags: HW
HStem: -205 21G<213.5 233> -205 21G<213.5 233> 79 98<311.5 445.5> 517 98<311.5 488.5>
VStem: 213.5 98<-201 79 177 517> 488.5 98<211 517>
LayerCount: 2
Fore
SplineSet
213.5 -205 m 21xbc
 213.5 613 l 17
 358.166015625 613 441.118164062 614.001953125 585.5 615 c 17
 585.5 457.333984375 586.49609375 368.375976562 586.5 211 c 25
 548.5 211 526.5 210 488.5 210 c 25
 488.5 517 l 25
 311.5 517 l 25
 310.5 177 l 25
 445.5 177 l 25
 445.5 79 l 25
 311.5 79 l 25
 311.5 -205 l 25x7c
 311.5 -203 315.5 -201 313.5 -201 c 24
 274.5 -201 252.5 -203 213.5 -205 c 21xbc
EndSplineSet
Validated: 5
EndChar

StartChar: g
Encoding: 103 103 6
Width: 800
Flags: HW
HStem: -205 99<624.75 746.25> -97 98<150.75 526.75> 320 20G<53.75 624.75> 340 21G<53.75 623.954>
VStem: 53.75 97<1 340> 526.75 98<-106 -97 1 340>
LayerCount: 2
Fore
SplineSet
746.25 -106 m 29xec
 746.25 -205 l 29
 526.75 -205 l 1
 526.75 -97 l 25
 53.75 -97 l 25
 53.75 340 l 25
 150.75 340 l 25
 150.75 1 l 25
 526.75 1 l 25
 526.75 340 l 25
 623.75 340 l 25
 624.75 -106 l 1
 746.25 -106 l 29xec
53.75 438 m 25
 624.75 438 l 25
 623.75 340 l 25
 53.75 340 l 25
 53.75 438 l 25
EndSplineSet
Validated: 5
EndChar

StartChar: h
Encoding: 104 104 7
Width: 800
Flags: HW
HStem: -205 21G<165.75 263.75 535.25 634.25> -205 21G<165.75 263.75 535.25 634.25> 114 98<263.75 535.25> 799 20G<165.75 264.75>
VStem: 165.75 98<-205 114 212 819> 535.25 99<-205 113>
LayerCount: 2
Fore
SplineSet
165.75 819 m 25xbc
 264.75 819 l 25
 263.75 212 l 1
 634.25 212 l 29
 634.25 -205 l 29
 535.25 -205 l 21
 535.25 113 l 29
 212.25 113 586.75 114 263.75 114 c 1
 263.75 -205 l 25
 165.75 -205 l 25
 165.75 819 l 25xbc
EndSplineSet
Validated: 33
EndChar

StartChar: i
Encoding: 105 105 9
Width: 800
Flags: HW
HStem: -205 99<159 353 451 641> 458 20G<353 451> 799 20G<354 451>
VStem: 353 98<-106 478 623 819>
LayerCount: 2
Fore
SplineSet
159 -106 m 29
 353 -106 l 25
 353 478 l 25
 451 478 l 25
 451 -106 l 25
 641 -106 l 25
 641 -205 l 25
 159 -205 l 25
 159 -106 l 29
354 819 m 25
 451 819 l 25
 451 623 l 25
 354 623 l 25
 354 819 l 25
EndSplineSet
Validated: 1
EndChar

StartChar: j
Encoding: 106 106 10
Width: 800
Flags: HW
HStem: -205 100<301 401> 495 20G<401 499> 799 20G<402 499>
VStem: 401 98<-105 515 628 819>
LayerCount: 2
Fore
SplineSet
401 515 m 25
 433.666992188 515 466.333007812 515 499 515 c 25
 499 -205 l 25
 301 -205 l 25
 301 -105 l 25
 401 -105 l 25
 401 101.666992188 401 308.333007812 401 515 c 25
402 819 m 25
 499 819 l 25
 499 628 l 25
 402 628 l 25
 402 819 l 25
EndSplineSet
Validated: 1
EndChar

StartChar: k
Encoding: 107 107 11
Width: 800
Flags: HW
HStem: -205 21G<196 294> -205 21G<196 294> 323 98<294 328 426 506> 799 20G<196 294>
VStem: 196 98<-205 323 421 819> 328 98<74 323> 506 98<421 540>
LayerCount: 2
Fore
SplineSet
196 819 m 29xbe
 294 819 l 25
 294 421 l 25
 506 421 l 25
 506 540 l 25
 604 540 l 25
 604 323 l 25
 426 323 l 25
 426 74 l 25
 328 74 l 25
 328 323 l 25
 294 323 l 25
 294 -205 l 25
 196 -205 l 25
 196 819 l 29xbe
EndSplineSet
Validated: 1
EndChar

StartChar: B
Encoding: 66 66 12
Width: 800
Flags: HW
HStem: -205 99<142.5 656.5> 257 98<142.5 656.5> 721 98<142.5 656.5>
VStem: 44.5 98<-106 257 355 721> 656.5 99<-106 257 355 721>
LayerCount: 2
Fore
SplineSet
522.5 1194 m 1049
44.5 -106 m 25
 44.5 721 l 25
 142.5 721 l 25
 142.5 -106 l 25
 44.5 -106 l 25
44.5 819 m 1
 755.5 819 l 1
 755.5 -205 l 1
 44.5 -205 l 1
 44.5 -106 l 5
 352.833007812 -106 348.166992188 -106 656.5 -106 c 1
 656.5 257 l 1
 142.5 257 l 25
 142.5 355 l 25
 656.5 355 l 1
 656.5 721 l 1
 348.166992188 721 352.833007812 721 44.5 721 c 1
 44.5 819 l 1
EndSplineSet
Validated: 5
EndChar

StartChar: C
Encoding: 67 67 13
Width: 800
Flags: HW
HStem: -205 154<674.5 773.5> -205 99<124.5 674.5> 681 138<674.5 773.5> 721 98<124.5 674.5>
VStem: 26.5 98<-106 721> 674.5 99<-106 -51 681 721>
LayerCount: 2
Fore
SplineSet
674.5 -51 m 25x8c
 773.5 -51 l 25
 773.5 -205 l 1x8c
 26.5 -205 l 29
 26.5 819 l 29x5c
 773.5 819 l 1
 773.5 681 l 25
 674.5 681 l 25x2c
 674.5 721 l 1
 124.5 721 l 29
 124.5 -106 l 29
 674.5 -106 l 1x5c
 674.5 -51 l 25x8c
EndSplineSet
Validated: 1
EndChar

StartChar: D
Encoding: 68 68 14
Width: 800
Flags: HW
HStem: -205 99<171.5 627.5> 721 98<171.5 627.5> 722 4<73.5 171.5>
VStem: 73.5 98<-106 721> 627.5 99<-106 721>
LayerCount: 2
Fore
SplineSet
73.5 -106 m 25xb8
 73.5 726 l 25
 171.5 729 l 25
 171.5 -106 l 25
 73.5 -106 l 25xb8
73.5 819 m 1xd8
 726.5 819 l 29
 726.5 -205 l 29
 73.5 -205 l 1
 73.5 -106 l 1
 381.833007812 -106 319.166992188 -106 627.5 -106 c 29
 627.5 721 l 29
 171.5 721 l 1xd8
 73.5 722 l 25xb8
 73.5 819 l 1xd8
EndSplineSet
Validated: 5
EndChar

StartChar: E
Encoding: 69 69 15
Width: 800
Flags: HW
HStem: -205 99<153.5 645.5> 242 155<153.5 490.5> 721 98<153.5 645.5>
VStem: 55.5 98<-106 242 397 721> 645.5 99<-106 137 540 721>
LayerCount: 2
Fore
SplineSet
645.5 137 m 25
 744.5 137 l 25
 744.5 -205 l 1
 55.5 -205 l 29
 55.5 819 l 29
 744.5 819 l 1
 744.5 540 l 25
 645.5 540 l 25
 645.5 721 l 1
 153.5 721 l 29
 153.5 397 l 29
 490.5 397 l 1
 490.5 242 l 1
 153.5 242 l 29
 153.5 -106 l 29
 645.5 -106 l 1
 645.5 137 l 25
EndSplineSet
Validated: 1
EndChar

StartChar: F
Encoding: 70 70 16
Width: 800
Flags: HW
HStem: -205 21G<115.5 214.5> -205 21G<115.5 214.5> 283 175<438.5 536.5> 283 98<215.5 438.5> 644 175<585.5 684.5> 721 98<213.5 585.5>
VStem: 115.5 98<-205 283 381 721> 438.5 98<381 458> 585.5 99<644 721>
LayerCount: 2
Fore
SplineSet
115.5 -205 m 25x9380
 115.5 819 l 1x9780
 684.5 819 l 5
 684.5 644 l 29
 585.5 644 l 29x0b80
 585.5 721 l 5
 213.5 721 l 1
 213.5 381 l 25
 438.5 381 l 1x1780
 438.5 458 l 25
 536.5 458 l 25
 536.5 283 l 1x2380
 215.5 283 l 25
 214.5 -106 l 25
 214.5 -205 l 25
 115.5 -205 l 25x9380
EndSplineSet
Validated: 1
EndChar

StartChar: G
Encoding: 71 71 17
Width: 800
Flags: HW
HStem: -205 99<156 643> 205 98<531 643> 721 98<156 742>
VStem: 58 98<-106 721> 643 99<-106 205>
LayerCount: 2
Fore
SplineSet
742 819 m 1
 742 721 l 1
 156 721 l 29
 156 -106 l 29
 643 -106 l 1
 643 205 l 1
 531 205 l 29
 531 303 l 29
 742 303 l 1
 742 -205 l 1
 58 -205 l 29
 58 819 l 29
 742 819 l 1
EndSplineSet
Validated: 1
EndChar

StartChar: H
Encoding: 72 72 18
Width: 800
Flags: HW
HStem: -205 21G<69.5 167.5 631.5 730.5> -205 21G<69.5 167.5 631.5 730.5> 114 98<167.5 631.5> 799 20G<69.5 167.5 631.5 730.5>
VStem: 69.5 98<-205 114 212 819> 631.5 99<-205 114 212 819>
LayerCount: 2
Fore
SplineSet
69.5 819 m 25xbc
 167.5 819 l 25
 167.5 212 l 1
 631.5 212 l 29
 631.5 819 l 29
 730.5 819 l 29
 730.5 -205 l 29
 631.5 -205 l 29
 631.5 114 l 29
 167.5 114 l 1
 167.5 -205 l 25
 69.5 -205 l 25
 69.5 819 l 25xbc
EndSplineSet
Validated: 1
EndChar

StartChar: I
Encoding: 73 73 19
Width: 800
Flags: HW
HStem: -205 99<129.5 340.5 438.5 670.5> 721 98<129.5 340.5 438.5 670.5>
VStem: 340.5 98<-105 721>
LayerCount: 2
Fore
SplineSet
129.5 819 m 5
 670.5 819 l 1
 670.5 721 l 25
 438.5 721 l 1
 438.5 -106 l 1
 670.5 -106 l 25
 670.5 -205 l 1
 129.5 -205 l 5
 129.5 -105 l 29
 340.5 -105 l 1
 340.5 721 l 1
 129.5 721 l 29
 129.5 819 l 5
EndSplineSet
Validated: 1
EndChar

StartChar: J
Encoding: 74 74 20
Width: 800
Flags: HW
HStem: -205 100<95 606> 799 20G<606.978 705>
VStem: 606 99<-105 819>
LayerCount: 2
Fore
SplineSet
95 -105 m 29
 606 -105 l 1
 607 819 l 25
 705 819 l 25
 705 -205 l 1
 95 -205 l 29
 95 -105 l 29
EndSplineSet
Validated: 1
EndChar

StartChar: K
Encoding: 75 75 21
Width: 800
Flags: HW
HStem: -205 21G<84.5 182.5> -205 21G<84.5 182.5> 323 98<182.5 216.5 314.5 616.5> 799 20G<84.5 182.5 616.5 715.5>
VStem: 84.5 98<-205 323 421 819> 216.5 98<-114 323> 616.5 99<421 819>
LayerCount: 2
Fore
SplineSet
84.5 819 m 29xbe
 182.5 819 l 25
 182.5 421 l 25
 616.5 421 l 25
 616.5 819 l 25
 715.5 819 l 25
 715.5 323 l 25
 314.5 323 l 25
 314.5 -114 l 25
 216.5 -114 l 25
 216.5 323 l 25
 182.5 323 l 25
 182.5 -205 l 25
 84.5 -205 l 25
 84.5 819 l 29xbe
EndSplineSet
Validated: 1
EndChar

StartChar: s
Encoding: 115 115 22
Width: 800
Flags: HW
HStem: -205 98<166.5 451.5> 57 98<164.5 451.5> 189 171<633.5 730.5> 262 98<164.5 633.5>
VStem: 68.5 96<-107 -11 155 262> 451.5 98<-107 57> 632.5 98<189 262>
LayerCount: 2
Back
Fore
SplineSet
68.5 360 m 29xde
 731.5 360 l 25xde
 730.5 189 l 25xee
 632.5 188 l 25
 633.5 262 l 25
 164.5 262 l 25
 164.5 155 l 25
 548.5 155 l 25
 549.5 -205 l 25
 68.5 -205 l 25
 68.5 -11 l 25
 166.5 -11 l 25
 166.5 -107 l 25
 451.5 -107 l 25
 451.5 57 l 25
 68.5 57 l 25
 68.5 360 l 29xde
EndSplineSet
Validated: 1
EndChar

StartChar: A
Encoding: 65 65 23
Width: 800
Flags: HW
HStem: -8 98<226.376 691.5> 1 98<107.5 572.624> 717 98<168.477 691.5> 719 7<10.5 106.5> 804 20G<9.69048 790.5>
VStem: 9.5 98<-200 1 99 719> 691.5 99<-209 -8 90 717>
LayerCount: 2
Fore
SplineSet
9.5 -200 m 25x46
 9.5 726 l 25
 106.5 726 l 25
 107.5 99 l 25x56
 691.5 90 l 1
 691.5 -8 l 1x86
 107.5 1 l 25
 107.5 -200 l 25
 9.5 -200 l 25x46
9.5 824 m 1x1e
 790.5 815 l 1
 790.5 -209 l 25
 691.5 -209 l 25
 691.5 717 l 1x26
 383.166992188 717 318.833007812 719 10.5 719 c 5
 9.5 824 l 1x1e
EndSplineSet
Validated: 5
EndChar

StartChar: l
Encoding: 108 108 24
Width: 800
Flags: HW
HStem: -205 98<383 515> 799 20G<285 383>
VStem: 285 98<-107 819>
LayerCount: 2
Back
Fore
SplineSet
285 819 m 29
 383 819 l 25
 383 -107 l 25
 515 -107 l 25
 515 -205 l 25
 285 -205 l 25
 285 819 l 29
EndSplineSet
Validated: 1
EndChar

StartChar: o
Encoding: 111 111 25
Width: 800
Flags: HW
HStem: -205 98<231.5 568.5> 265 98<133.5 568.5>
VStem: 133.5 98<-107 265> 568.5 98<-107 265>
LayerCount: 2
Back
Fore
SplineSet
133.5 363 m 29
 666.5 363 l 25
 666.5 -205 l 25
 133.5 -205 l 25
 133.5 265 l 25
 231.5 265 l 25
 231.5 -107 l 25
 568.5 -107 l 25
 568.5 265 l 25
 423.5 265 278.5 265 133.5 265 c 25
 133.5 363 l 29
EndSplineSet
Validated: 5
EndChar

StartChar: w
Encoding: 119 119 26
Width: 800
Flags: HW
HStem: -205 98<105 350 448 695> 223 84<104 201 597 695>
VStem: 7 98<-107 223> 350 98<-107 307> 695 98<-106 224>
LayerCount: 2
Fore
SplineSet
7 307 m 25
 201 307 l 25
 201 223 l 25
 104 223 l 25
 105 -107 l 25
 350 -107 l 1
 350 307 l 25
 448 307 l 25
 448 -107 l 1
 695 -106 l 29
 695 224 l 29
 597 224 l 29
 597 308 l 29
 793 308 l 29
 793 -204 l 5
 7 -205 l 1
 7 307 l 25
EndSplineSet
Validated: 1
EndChar

StartChar: t
Encoding: 116 116 27
Width: 800
Flags: HW
HStem: -205 97<360 645> 349 98<153 263 360 647>
VStem: 263 97<-108 349 447 575>
LayerCount: 2
Back
Fore
SplineSet
361 575 m 1053
263 575 m 25
 361 575 l 25
 360 447 l 25
 647 447 l 25
 647 349 l 25
 360 349 l 25
 360 -108 l 25
 645 -109 l 25
 645 -205 l 25
 263 -205 l 25
 263 350 l 25
 153 350 l 25
 153 447 l 25
 263 447 l 25
 263 575 l 25
EndSplineSet
Validated: 1
EndChar

StartChar: u
Encoding: 117 117 28
Width: 800
Flags: HW
HStem: -205 97<362 549> 169 98<154 264> 344 20G<549 646>
VStem: 264 98<-108 169> 549 97<-108 364>
LayerCount: 2
Back
Fore
SplineSet
154 267 m 29
 362 267 l 25
 362 -108 l 25
 549 -108 l 25
 549 364 l 25
 646 364 l 25
 646 -205 l 25
 264 -205 l 25
 264 169 l 25
 154 169 l 25
 154 267 l 29
EndSplineSet
Validated: 1
EndChar

StartChar: p
Encoding: 112 112 29
Width: 800
Flags: HW
HStem: -205 21G<114 212> -205 21G<114 212> 23 99<212 588> 339 99<212 588> 474 20G<114 212>
VStem: 114 98<-205 23 122 339 438 494> 588 98<122 340>
LayerCount: 2
Back
Fore
SplineSet
114 494 m 29xbe
 212 494 l 25
 212 438 l 25
 686 438 l 25
 686 23 l 25
 212 23 l 25
 212 -205 l 25
 114 -205 l 25
 114 119 l 25
 212 122 l 25
 588 122 l 25
 588 340 l 25
 210 339 l 25
 212 122 l 25
 114 119 l 25
 114 494 l 29xbe
EndSplineSet
Validated: 5
EndChar

StartChar: L
Encoding: 76 76 30
Width: 800
Flags: HW
HStem: -205 98<193 704> 799 20G<96 194>
VStem: 96 97<-107 819>
LayerCount: 2
Fore
SplineSet
96 819 m 25
 194 819 l 25
 193 -107 l 1
 704 -107 l 29
 704 -205 l 29
 96 -205 l 1
 96 819 l 25
EndSplineSet
Validated: 1
EndChar

StartChar: M
Encoding: 77 77 31
Width: 800
Flags: HW
HStem: -205 21G<81 179 342 440 621 719> -205 21G<81 179 342 440 621 719> 721 98<178 342 439 621>
VStem: 81 98<-205 721> 342 98<-205 721> 621 98<-205 721>
LayerCount: 2
Fore
SplineSet
81 -205 m 25xbc
 81 819 l 1
 719 819 l 5
 719 -205 l 29
 621 -205 l 29
 621 721 l 29
 439 721 l 1
 440 -205 l 25
 342 -205 l 25
 342 721 l 1
 178 721 l 25
 179 -205 l 25
 81 -205 l 25xbc
EndSplineSet
Validated: 1
EndChar

StartChar: N
Encoding: 78 78 32
Width: 800
Flags: HW
HStem: -205 21G<40.5 138.5 661.5 759.5> -205 21G<40.5 138.5 661.5 759.5> 720 99<138.5 661.5>
VStem: 40.5 98<-205 720> 661.5 98<-205 721>
LayerCount: 2
Fore
SplineSet
40.5 -205 m 29xb8
 40.5 819 l 29
 759.5 819 l 1
 759.5 -205 l 25
 661.5 -205 l 25
 661.5 721 l 1
 138.5 720 l 29
 138.5 -205 l 29
 40.5 -205 l 29xb8
EndSplineSet
Validated: 1
EndChar

StartChar: O
Encoding: 79 79 33
Width: 1024
Flags: HW
HStem: -205 130<151 248> -205 98<351 775> 721 98<249 775>
VStem: 151 97<-75 721> 775 98<-107 721>
LayerCount: 2
Fore
SplineSet
351 -107 m 1x78
 775 -107 l 25x78
 775 169 775 445 775 721 c 25
 249 721 l 1
 248 -75 l 25
 151 -75 l 25xb8
 151 819 l 1
 873 819 l 25
 873 -205 l 25x78
 151 -205 l 1
 151 -75 l 25
 248 -75 l 1xb8
 691 721 l 1
 775 721 l 5
 775 669 l 1
 351 -107 l 1x78
EndSplineSet
Validated: 5
EndChar

StartChar: P
Encoding: 80 80 34
Width: 800
Flags: HW
HStem: -205 21G<142 240> -205 21G<142 240> -10 97<240 561> 723 96<240 561>
VStem: 142 98<-205 -10 87 721> 561 97<87 723>
LayerCount: 2
Fore
SplineSet
142 -205 m 25xbc
 142 819 l 1
 658 819 l 29
 658 -10 l 29
 240 -10 l 1
 240 87 l 1
 561 87 l 29
 561 723 l 29
 240 721 l 1
 240 412.333007812 240 103.666992188 240 -205 c 25
 142 -205 l 25xbc
EndSplineSet
Validated: 5
EndChar

StartChar: Q
Encoding: 81 81 35
Width: 800
Flags: HW
HStem: -205 98<353 687> -10 98<208 256 353 592> 721 98<208 592>
VStem: 110 146<-10 88> 110 98<88 721> 256 97<-107 -10> 592 98<88 721>
LayerCount: 2
Fore
SplineSet
110 819 m 1xea
 690 819 l 29
 690 -10 l 29
 353 -10 l 1
 353 -107 l 1
 687 -107 l 29
 687 -205 l 29
 256 -205 l 1xee
 256 88 l 1xf2
 592 88 l 29
 592 721 l 29
 208 721 l 1
 208 88 l 25xea
 256 88 l 25
 256 -10 l 25
 110 -10 l 25xf2
 110 819 l 1xea
EndSplineSet
Validated: 5
EndChar

StartChar: R
Encoding: 82 82 36
Width: 800
Flags: HW
HStem: -205 21G<121.5 219.5 347.5 445.5> -205 21G<121.5 219.5 347.5 445.5> -10 98<219.5 347.5 444.5 580.5> 721 98<219.5 580.5>
VStem: 121.5 98<-205 -10 87 721> 347.5 98<-205 -10> 580.5 98<88 722>
LayerCount: 2
Fore
SplineSet
121.5 -205 m 25xbe
 121.5 819 l 1
 678.5 819 l 29
 678.5 -10 l 29
 444.5 -10 l 1
 445.5 -205 l 25
 347.5 -205 l 25
 347.5 -10 l 25
 219.5 -10 l 1
 219.5 87 l 1
 580.5 88 l 29
 580.5 722 l 29
 219.5 721 l 1
 219.5 -205 l 25
 121.5 -205 l 25xbe
EndSplineSet
Validated: 5
EndChar

StartChar: S
Encoding: 83 83 37
Width: 800
Flags: HW
HStem: -205 98<211 406> 176 98<211 406> 441 21G<589 687> 721 98<211 589>
VStem: 113 98<-107 22 274 721> 406 99<-107 176> 589 98<441 721>
LayerCount: 2
Fore
SplineSet
113 819 m 1
 687 819 l 29
 687 441 l 29
 589 441 l 29
 589 721 l 29
 211 721 l 1
 211 274 l 1
 505 274 l 29
 505 -205 l 29
 113 -205 l 1
 113 22 l 25
 211 22 l 25
 211 -107 l 1
 406 -107 l 29
 406 176 l 29
 113 176 l 1
 113 819 l 1
EndSplineSet
Validated: 1
EndChar

StartChar: T
Encoding: 84 84 38
Width: 800
Flags: HW
HStem: -205 21G<344.5 442.5> -205 21G<344.5 442.5> 392 21G<90.5 188.5 611.5 709.5> 721 98<187.5 344.5 441.5 611.5>
VStem: 90.5 98<392 721> 344.5 98<-205 721> 611.5 98<392 721>
LayerCount: 2
Fore
SplineSet
90.5 392 m 25xbe
 90.5 819 l 1
 709.5 819 l 5
 709.5 392 l 29
 611.5 392 l 29
 611.5 721 l 29
 441.5 721 l 1
 442.5 -205 l 25
 344.5 -205 l 25
 344.5 721 l 1
 187.5 721 l 25
 188.5 392 l 25
 90.5 392 l 25xbe
EndSplineSet
Validated: 1
EndChar

StartChar: U
Encoding: 85 85 39
Width: 381
Flags: HW
HStem: -205 98<-14 395> 799 20G<-112 -14 395 493>
VStem: -112 98<-107 819> 395 98<-107 819>
LayerCount: 2
Fore
SplineSet
-112 819 m 25
 -14 819 l 25
 -14 -107 l 1
 395 -107 l 29
 395 819 l 29
 493 819 l 29
 493 -205 l 29
 -112 -205 l 1
 -112 819 l 25
EndSplineSet
Validated: 1
EndChar

StartChar: V
Encoding: 86 86 40
Width: 800
Flags: HW
HStem: -205 21G<340.812 458.201> -205 21G<340.812 458.201> 799 20G<42.75 190.412 624.128 757.25>
LayerCount: 2
Fore
SplineSet
346.75 -205 m 1xa0
 42.75 819 l 25
 184.75 819 l 25
 430.75 -50 l 1
 364.25 -49 l 25
 630.25 820 l 25
 757.25 820 l 1
 452.25 -205 l 29
 346.75 -205 l 1xa0
EndSplineSet
Validated: 5
EndChar

StartChar: W
Encoding: 87 87 41
Width: 800
Flags: HW
HStem: -205 98<165 358 456 635> 799 20G<67 165 358 456 635 733>
VStem: 67 98<-107 819> 358 98<-106 819> 635 98<-107 819>
LayerCount: 2
Fore
SplineSet
67 819 m 29
 165 819 l 29
 165 -107 l 29
 358 -107 l 1
 358 819 l 25
 456 819 l 25
 456 -106 l 1
 635 -107 l 25
 635 819 l 25
 733 819 l 25
 733 -205 l 1
 67 -205 l 5
 67 819 l 29
EndSplineSet
Validated: 1
EndChar

StartChar: X
Encoding: 88 88 42
Width: 800
Flags: HW
HStem: 802 20G<219.92 247.362 553.401 580.08>
LayerCount: 2
Fore
SplineSet
156 735 m 25
 239 822 l 25
 407.5 419 l 1
 561 823 l 29
 644 736 l 29
 491.5 331 l 1
 691 -114 l 29
 608 -200 l 29
 407.5 244 l 1
 191 -198 l 25
 109 -112 l 25
 324.5 331 l 1
 156 735 l 25
EndSplineSet
Validated: 1
EndChar

StartChar: Y
Encoding: 89 89 43
Width: 800
Flags: HW
HStem: -204 21G<350.5 445.5> -204 21G<350.5 445.5> 73 98<219.5 350.5 445.5 580.5> 799 20G<121.5 219.5 580.5 678.5>
VStem: 121.5 98<171 819> 350.5 95<-204 74> 580.5 98<171 819>
LayerCount: 2
Fore
SplineSet
121.5 819 m 25xbe
 219.5 819 l 25
 219.5 171 l 1
 580.5 171 l 5
 580.5 819 l 29
 678.5 819 l 29
 678.5 73 l 29
 445.5 74 l 1
 445.5 -204 l 25
 350.5 -204 l 25
 350.5 74 l 1
 121.5 73 l 25
 121.5 819 l 25xbe
EndSplineSet
Validated: 1
EndChar

StartChar: Z
Encoding: 90 90 44
Width: 800
Flags: HW
HStem: -205 98<177 771> 257 96<88 281 525 722> 722 97<29 622>
LayerCount: 2
Fore
SplineSet
29 819 m 25
 771 819 l 1
 771 728 l 1
 525 353 l 25
 722 353 l 25
 722 257 l 25
 424 257 l 1
 177 -107 l 1
 771 -107 l 1
 771 -205 l 1
 29 -205 l 25
 29 -114 l 1
 281 256 l 1
 88 256 l 25
 88 353 l 25
 384 354 l 5
 622 722 l 1
 29 722 l 25
 29 819 l 25
EndSplineSet
Validated: 1
EndChar

StartChar: m
Encoding: 109 109 45
Width: 800
Flags: HW
HStem: -204 98<75 204 596 724> 74 98<76 354 451 724>
VStem: -22 97<-106 74> 354 98<-205 73> 724 98<-107 74>
LayerCount: 2
Fore
SplineSet
-22 173 m 1
 822 172 l 5
 822 -205 l 29
 596 -205 l 29
 596 -107 l 29
 724 -107 l 29
 724 74 l 29
 451 74 l 1
 452 -205 l 25
 354 -205 l 25
 354 73 l 1
 76 74 l 25
 75 -106 l 25
 204 -106 l 25
 204 -204 l 25
 -22 -204 l 25
 -22 173 l 1
EndSplineSet
Validated: 1
EndChar

StartChar: n
Encoding: 110 110 46
Width: 800
Flags: HW
HStem: -205 21G<141.5 238.5 560.5 658.5> -205 21G<141.5 238.5 560.5 658.5> 160 99<239.5 560.5> 334 20G<141.5 238.711>
VStem: 141.5 97<-205 160 259 354> 560.5 98<-205 160>
LayerCount: 2
Back
Fore
SplineSet
141.5 -205 m 25xbc
 141.5 354 l 25
 238.5 354 l 25
 239.5 259 l 25
 658.5 259 l 25
 658.5 -107 l 13
 658.5 -205 l 29
 560.5 -205 l 1
 560.5 160 l 25
 238.5 160 l 25
 238.5 -205 l 25
 141.5 -205 l 25xbc
EndSplineSet
Validated: 1
EndChar

StartChar: q
Encoding: 113 113 47
Width: 800
Flags: HW
HStem: -205 98<572 800> 23 99<0 474> 340 98<98 474> 474 20G<474 572>
VStem: 0 98<124 340> 474 98<-107 23 122 340 438 494>
LayerCount: 2
Back
Fore
SplineSet
0 438 m 29
 474 438 l 25
 474 494 l 25
 572 494 l 25
 572 -107 l 25
 800 -108 l 25
 800 -205 l 25
 474 -205 l 25
 474 23 l 25
 0 23 l 25
 0 124 l 25
 98 122 l 25
 474 122 l 25
 474 340 l 25
 98 340 l 25
 98 122 l 25
 0 124 l 25
 0 438 l 29
EndSplineSet
Validated: 5
EndChar

StartChar: r
Encoding: 114 114 48
Width: 800
Flags: HW
HStem: -205 21G<114 211.037> -205 21G<114 211.037> 264 174<588 686> 340 98<212 588> 474 20G<114 212>
VStem: 114 98<-205 340 438 494> 588 98<264 340>
LayerCount: 2
Back
Fore
SplineSet
114 494 m 29x9e
 212 494 l 25
 212 438 l 25x9e
 686 438 l 25
 686 264 l 25
 588 264 l 25x2e
 588 340 l 25
 212 340 l 25
 211 -205 l 25
 114 -205 l 25
 114 494 l 29x9e
EndSplineSet
Validated: 1
EndChar

StartChar: v
Encoding: 118 118 49
Width: 800
Flags: HW
HStem: -204 152<356 447> 287 20G<141 251.184>
LayerCount: 2
Back
Fore
SplineSet
141 307 m 29
 245 307 l 25
 356 -52 l 25
 447 -52 l 25
 557 304 l 25
 659 303 l 25
 500 -205 l 25
 302 -204 l 25
 141 307 l 29
EndSplineSet
Validated: 1
EndChar

StartChar: x
Encoding: 120 120 50
Width: 800
Flags: HW
HStem: -203 21G<179.206 219.594> 305 20G<214.063 253.5 559.5 599.5>
LayerCount: 2
Back
Fore
SplineSet
164.5 254 m 29
 233.5 325 l 25
 411.5 147 l 25
 579.5 315 l 25
 648.5 246 l 25
 481.5 78 l 25
 669.5 -110 l 25
 600.5 -178 l 25
 412.5 9 l 25
 199.5 -203 l 25
 130.5 -135 l 25
 342.5 78 l 25
 164.5 254 l 29
EndSplineSet
Validated: 1
EndChar

StartChar: y
Encoding: 121 121 51
Width: 800
Flags: HW
HStem: -205 98<155 547> 58 97<360 547> 432 98<155 262>
VStem: 262 98<155 432> 547 98<-107 58 155 530>
LayerCount: 2
Back
Fore
SplineSet
155 530 m 29
 359 530 l 25
 360 155 l 25
 547 155 l 25
 547 530 l 25
 645 530 l 25
 645 -205 l 25
 155 -205 l 25
 155 -107 l 25
 547 -107 l 25
 547 58 l 25
 262 58 l 25
 262 432 l 25
 155 432 l 25
 155 530 l 29
EndSplineSet
Validated: 1
EndChar

StartChar: z
Encoding: 122 122 52
Width: 800
Flags: HW
HStem: -205 98<285.5 662.5> 37 98<215.5 295.5 538.5 597.5> 247 97<137.5 513.5>
LayerCount: 2
Back
Fore
SplineSet
137.5 344 m 29
 662.5 344 l 25
 662.5 253 l 25
 538.5 134 l 25
 597.5 134 l 25
 597.5 37 l 25
 436.5 37 l 25
 285.5 -107 l 25
 662.5 -107 l 25
 662.5 -205 l 25
 137.5 -205 l 25
 137.5 -115 l 25
 295.5 37 l 25
 215.5 37 l 25
 215.5 135 l 25
 397.5 135 l 25
 513.5 246 l 25
 137.5 247 l 25
 137.5 344 l 29
EndSplineSet
Validated: 1
EndChar

StartChar: a
Encoding: 97 97 53
Width: 800
Flags: HW
HStem: -2 96<269 538> 330 97<272 537> 489 20G<537 635.038>
VStem: 174.162 94.8379<94 330> 538 98<-20 -3 94 509>
LayerCount: 2
Fore
SplineSet
169 242 m 1
 533 243 l 1
 533 146 l 1
 269 145 l 1
 269 -91 l 1
 530 -92 l 5
 532 324 l 1
 630 324 l 1
 631 -205 l 1
 553 -205 l 0
 533 -205 l 9
 533 -188 l 1
 169 -187 l 1
 169.162109375 -95 l 0
 169.002929688 236 l 0
 169 242 l 1
EndSplineSet
Validated: 5
EndChar

StartChar: exclam
Encoding: 33 33 54
Width: 800
Flags: HW
HStem: -205 184<351 449>
VStem: 351 98<-205 -21>
LayerCount: 2
Back
Fore
SplineSet
351 819 m 5
 449 819 l 5
 449 143 l 5
 351 143 l 5
 351 819 l 5
449 819 m 25
 449 143 l 25
 351 143 l 25
 351 819 l 25
 449 819 l 25
 351 819 l 25
 351 143 l 25
 449 143 l 1049
351 -21 m 25
 449 -21 l 25
 449 -205 l 25
 351 -205 l 25
 351 -21 l 25
EndSplineSet
Validated: 3
EndChar

StartChar: quotedbl
Encoding: 34 34 55
Width: 800
Flags: HW
HStem: 635 184<326 386 414 474>
VStem: 326 60<635 819> 414 60<635 819>
LayerCount: 2
Back
Fore
SplineSet
414 819 m 29
 474 819 l 25
 474 635 l 25
 414 635 l 25
 414 819 l 29
326 819 m 25
 386 819 l 25
 386 635 l 25
 326 635 l 25
 326 819 l 25
EndSplineSet
Validated: 1
EndChar

StartChar: numbersign
Encoding: 35 35 56
Width: 800
Flags: HW
HStem: 80 98<-30 199 297 483 581 830> 364 99<-30 198 581 830>
VStem: 199 97.4707<-143 80 178 364 463 716> 483 98<-143 80 178 364 463 716>
LayerCount: 2
Back
Fore
SplineSet
296 463 m 5
 296 366 l 5
 483 366 l 5
 483 463 l 5
 296 463 l 5
483 716 m 25
 581 716 l 25
 581 463 l 25
 830 463 l 25
 830 364 l 25
 581 364 l 25
 581 178 l 25
 830 178 l 25
 830 80 l 25
 580 80 l 25
 581 -143 l 25
 483 -143 l 25
 483 80 l 25
 296 80 l 25
 297 -143 l 25
 199 -143 l 25
 199 80 l 25
 -30 80 l 25
 -30 178 l 25
 199 178 l 25
 198 364 l 25
 -30 364 l 25
 -30 463 l 25
 199 463 l 25
 199 716 l 25
 296 716 l 17
 296.470703125 463 l 1
 297 178 l 9
 483 178 l 25
 483 716 l 25
EndSplineSet
Validated: 5
EndChar

StartChar: dollar
Encoding: 36 36 57
Width: 800
Flags: HW
HStem: -100 168<350 448> -30 98<142 350 448 563> 249 98<237 563> 533 168<350 448> 533 98<237 350 448 660>
VStem: 139 98<347 533> 350 98<-100 -30 632 701> 563 98<68 249>
LayerCount: 2
Back
Fore
SplineSet
350 701 m 29x77
 448 701 l 25x77
 448 631 l 25
 661 631 l 25
 660 533 l 25
 237 533 l 25
 237 347 l 25
 661 347 l 25
 661 -30 l 25
 448 -30 l 25x6f
 448 -100 l 25
 350 -100 l 25xa7
 350 -30 l 25
 142 -30 l 25
 142 68 l 25
 563 68 l 25
 563 249 l 25
 139 249 l 25
 139 632 l 25
 350 632 l 25
 350 701 l 29x77
EndSplineSet
Validated: 1
EndChar

StartChar: percent
Encoding: 37 37 58
Width: 800
Flags: HW
HStem: 287 20G<489 529> 354 21G<236 276>
LayerCount: 2
Back
Fore
SplineSet
402 200 m 29
 509 307 l 25
 611 205 l 25
 503 98 l 25
 402 200 l 29
722 711 m 25
 791 642 l 25
 77 -72 l 25
 9 -3 l 25
 722 711 l 25
154 456 m 25
 262 564 l 25
 363 461 l 25
 256 354 l 25
 154 456 l 25
EndSplineSet
Validated: 1
EndChar

StartChar: ampersand
Encoding: 38 38 59
Width: 800
Flags: HW
HStem: -120 98<173.5 486.704> 333 98<247.5 685.5> 628 99<247.5 620.5>
VStem: 76.5 97<-22 267> 149.5 98<432 628>
LayerCount: 2
Back
Fore
SplineSet
620.5 727 m 29xe8
 620.5 629 l 25
 247.5 628 l 25
 247.5 432 l 25xe8
 685.5 431 l 25
 686.5 333 l 25
 245.5 333 l 25
 570.5 9 l 25
 461.5 -22 l 25
 174.5 267 l 25
 173.5 -22 l 25
 461.5 -22 l 25
 570.5 9 l 25
 588.5 26 l 25
 723.5 26 l 25
 723.5 23 l 25
 641.5 -60 l 25
 723.5 -143 l 25
 584.5 -143 l 25
 562.5 -120 l 25
 76.5 -120 l 25
 76.5 431 l 25xf0
 149.5 431 l 25
 149.5 727 l 25
 620.5 727 l 29xe8
EndSplineSet
Validated: 5
EndChar

StartChar: quotesingle
Encoding: 39 39 60
Width: 800
Flags: HW
HStem: 635 184<370 430>
VStem: 370 60<635 819>
LayerCount: 2
Back
Fore
SplineSet
370 635 m 29
 370 819 l 25
 430 819 l 25
 430 635 l 25
 370 635 l 29
EndSplineSet
Validated: 1
EndChar

StartChar: parenleft
Encoding: 40 40 61
Width: 800
Flags: HW
VStem: 221 358<-21 592> 460 119<-177 -22 592 762>
LayerCount: 2
Back
Fore
SplineSet
461 762 m 29x40
 579 762 l 25
 579 -177 l 25
 460 -177 l 25
 460 -22 l 25x40
 221 -21 l 25x80
 222 592 l 25
 460 592 l 25
 461 762 l 29x40
EndSplineSet
Validated: 1
EndChar

StartChar: parenright
Encoding: 41 41 62
Width: 800
Flags: HW
VStem: 221.5 357<-21 591> 221.5 118<-177 -21 591 762>
LayerCount: 2
Back
Fore
SplineSet
221.5 762 m 29x40
 339.5 762 l 25
 339.5 591 l 25x40
 578.5 591 l 25
 578.5 -21 l 25x80
 339.5 -21 l 25
 339.5 -177 l 25
 221.5 -177 l 25
 221.5 762 l 29x40
EndSplineSet
Validated: 1
EndChar

StartChar: asterisk
Encoding: 42 42 63
Width: 800
Flags: HW
HStem: 523 21G<361 424> 649 63<251 312 472 548> 800 20G<362 424>
VStem: 361 63<523 608 763 818>
LayerCount: 2
Back
Fore
SplineSet
362 818 m 25
 424 820 l 1053
362 818 m 25
 424 820 l 25
 424 763 l 25
 472 810 l 25
 515 765 l 25
 463 712 l 25
 548 712 l 25
 549 649 l 25
 472 649 l 25
 521 600 l 25
 476 555 l 25
 424 608 l 25
 424 523 l 25
 361 523 l 25
 361 610 l 25
 305 554 l 25
 261 599 l 25
 312 649 l 25
 251 649 l 25
 251 712 l 25
 320 712 l 25
 266 766 l 25
 310 811 l 25
 361 760 l 25
 362 818 l 25
EndSplineSet
Validated: 3
EndChar

StartChar: plus
Encoding: 43 43 64
Width: 800
Flags: HW
HStem: 283 98<148 340 440 652>
VStem: 341 99<107 283 381 578>
LayerCount: 2
Back
Fore
SplineSet
344 578 m 1
 441 578 l 1
 440 381 l 1
 652 381 l 1
 652 283 l 5
 440 283 l 1
 439 107 l 25
 340 107 l 25
 341 283 l 25
 148 284 l 25
 148 380 l 25
 340 381 l 1
 344 578 l 1
EndSplineSet
Validated: 1
EndChar

StartChar: comma
Encoding: 44 44 65
Width: 800
Flags: HW
HStem: -205 98<313.5 388.5>
VStem: 313.5 173<-205 -107> 388.5 98<-107 25>
LayerCount: 2
Back
Fore
SplineSet
388.5 25 m 29xa0
 486.5 25 l 25xa0
 486.5 -205 l 25
 313.5 -205 l 25
 313.5 -107 l 25xc0
 388.5 -107 l 25
 388.5 25 l 29xa0
EndSplineSet
Validated: 1
EndChar

StartChar: hyphen
Encoding: 45 45 66
Width: 800
Flags: HW
HStem: 257 98<62 738>
LayerCount: 2
Back
Fore
SplineSet
62 355 m 29
 738 355 l 1
 738 257 l 25
 62 257 l 1
 62 355 l 29
EndSplineSet
Validated: 1
EndChar

StartChar: period
Encoding: 46 46 67
Width: 800
Flags: HW
HStem: -205 98<349.5 450.5>
VStem: 349.5 101<-205 -107>
LayerCount: 2
Back
Fore
SplineSet
349.5 -107 m 1
 450.5 -107 l 1
 450.5 -205 l 5
 349.5 -205 l 1
 349.5 -107 l 1
EndSplineSet
Validated: 1
EndChar

StartChar: slash
Encoding: 47 47 68
Width: 800
Flags: HW
LayerCount: 2
Back
Fore
SplineSet
620 762 m 29
 703 711 l 25
 180 -149 l 25
 97 -100 l 25
 620 762 l 29
EndSplineSet
Validated: 1
EndChar

StartChar: zero
Encoding: 48 48 69
Width: 800
Flags: HW
HStem: -205 97<99 701> -205 21G<1 21.2062> 720 97<98 701>
VStem: 1 98<-108 720> 701 98<-108 720>
LayerCount: 2
Back
Fore
SplineSet
1 817 m 1053x38
1 817 m 25
 799 817 l 25
 799 -205 l 25
 1 -205 l 25x78
 99 -108 l 25
 701 -108 l 25
 701 720 l 25
 98 720 l 25
 99 -108 l 25xb8
 1 -205 l 25x78
 1 817 l 25
EndSplineSet
Validated: 5
EndChar

StartChar: one
Encoding: 49 49 70
Width: 800
Flags: HW
HStem: -205 97<1 340 438 799> 720 97<140 340>
VStem: 340 98<-108 720>
LayerCount: 2
Back
Fore
SplineSet
140 817 m 29
 438 818 l 25
 438 -108 l 25
 799 -108 l 25
 799 -205 l 25
 1 -205 l 25
 1 -108 l 25
 340 -108 l 25
 340 720 l 25
 140 720 l 25
 140 817 l 29
EndSplineSet
Validated: 1
EndChar

StartChar: two
Encoding: 50 50 71
Width: 800
Flags: HW
HStem: -205 97<278.5 520.5> 527 21G<181.5 279.5> 720 99<279.5 520.5>
VStem: 181.5 98<-108 -29 527 720> 520.5 98<-108 85 585 720>
LayerCount: 2
Back
Fore
SplineSet
181.5 527 m 29
 181.5 819 l 25
 618.5 818 l 25
 618.5 558 l 25
 278.5 -29 l 25
 278.5 -108 l 25
 520.5 -108 l 25
 520.5 85 l 25
 618.5 85 l 25
 618.5 -205 l 25
 181.5 -205 l 25
 181.5 23 l 25
 520.5 585 l 25
 520.5 720 l 25
 279.5 720 l 25
 279.5 527 l 25
 181.5 527 l 29
EndSplineSet
Validated: 1
EndChar

StartChar: three
Encoding: 51 51 72
Width: 800
Flags: HW
HStem: -205 98<227 559> 256 99<313 558> 429 20G<228 313> 721 98<228 559>
VStem: 144 83<-107 -10 624 721> 228 85<160 256 355 448> 559 97<-107 255 355 722>
LayerCount: 2
Back
Fore
SplineSet
144 624 m 29
 144 819 l 25
 655 819 l 25
 656 -205 l 25
 144 -205 l 25
 144 -10 l 25
 227 -10 l 25
 227 -107 l 25
 559 -107 l 25
 558 255 l 25
 312 256 l 25
 311 160 l 25
 228 160 l 25
 228 449 l 25
 313 448 l 25
 313 355 l 25
 558 355 l 25
 559 722 l 25
 228 721 l 25
 227 624 l 25
 144 624 l 29
EndSplineSet
Validated: 1
EndChar

StartChar: four
Encoding: 52 52 73
Width: 800
Flags: HW
HStem: -205 21G<473.457 570.5> -205 21G<473.457 570.5> 256 98<196.055 471.5 570.5 657.5> 342 21G<155.749 275.5> 799 20G<445.251 570.5>
VStem: 472.5 98<-205 256 354 652>
LayerCount: 2
Back
Fore
SplineSet
458.5 819 m 29x1c
 570.5 819 l 25
 569.5 354 l 25
 657.5 354 l 25
 657.5 256 l 25
 570.5 256 l 25
 570.5 -205 l 25
 473.5 -205 l 25
 472.5 256 l 25
 142.5 256 l 25xac
 142.5 342 l 25x1c
 275.5 354 l 25
 471.5 354 l 25
 472.5 652 l 25
 275.5 354 l 25x2c
 142.5 342 l 25
 458.5 819 l 29x1c
EndSplineSet
Validated: 5
EndChar

StartChar: five
Encoding: 53 53 74
Width: 800
Flags: HW
HStem: -204 175<181 278> -204 96<278 520> 270 99<279 520> 720 99<279 520>
VStem: 181 98<-108 -29 369 720> 520 98<-108 270 586 720>
LayerCount: 2
Back
Fore
SplineSet
617 586 m 29x7c
 520 586 l 25
 520 720 l 25
 279 720 l 25
 279 369 l 25
 619 369 l 25
 618 -205 l 25
 181 -204 l 25
 181 -29 l 25
 278 -29 l 25xbc
 278 -108 l 25
 520 -108 l 25
 520 270 l 25
 181 270 l 25
 181 819 l 25
 618 818 l 25
 617 586 l 29x7c
EndSplineSet
Validated: 1
EndChar

StartChar: six
Encoding: 54 54 75
Width: 800
Flags: HW
HStem: -205 97<279.5 520.5> 179 98<279.5 520.5> 719 100<279.5 618.5>
VStem: 181.5 98<-108 179 277 719> 520.5 98<-108 179>
LayerCount: 2
Back
Fore
SplineSet
618.5 819 m 29
 618.5 720 l 1
 279.5 719 l 25
 279.5 277 l 25
 618.5 277 l 25
 520.5 179 l 25
 279.5 179 l 25
 279.5 -108 l 25
 520.5 -108 l 25
 520.5 179 l 25
 618.5 277 l 25
 618.5 -205 l 25
 181.5 -205 l 25
 181.5 819 l 1
 618.5 819 l 29
EndSplineSet
Validated: 5
EndChar

StartChar: seven
Encoding: 55 55 76
Width: 800
Flags: HW
HStem: -205 21G<520.5 618.5> -205 21G<520.5 618.5> 527 21G<181.5 279.5> 720 99<279.5 520.5>
VStem: 181.5 98<527 720> 520.5 98<-205 720>
LayerCount: 2
Back
Fore
SplineSet
618.5 -205 m 29xbc
 520.5 -205 l 25
 520.5 720 l 25
 279.5 720 l 25
 279.5 527 l 25
 181.5 527 l 25
 181.5 819 l 25
 618.5 819 l 25
 618.5 -205 l 29xbc
EndSplineSet
Validated: 1
EndChar

StartChar: eight
Encoding: 56 56 77
Width: 800
Flags: HW
HStem: -204 97<279.5 521.5> 250 99<279.5 520.5> 719 100<279.5 520.5>
VStem: 181.5 98<-107 250 349 719> 520.5 98<-107 720>
LayerCount: 2
Back
Fore
SplineSet
181.5 -204 m 29
 181.5 819 l 25
 279.5 719 l 25
 279.5 349 l 25
 520.5 348 l 25
 520.5 250 l 25
 279.5 250 l 25
 279.5 -107 l 25
 521.5 -107 l 25
 520.5 348 l 25
 520.5 720 l 25
 279.5 719 l 25
 181.5 819 l 25
 618.5 819 l 25
 618.5 -204 l 25
 181.5 -204 l 29
EndSplineSet
Validated: 5
EndChar

StartChar: nine
Encoding: 57 57 78
Width: 800
Flags: HW
HStem: -205 99<181.5 519.5> 250 98<278.5 519.5> 720 99<278.5 520.5>
VStem: 181.5 97<348 720> 519.5 99<-106 720>
LayerCount: 2
Back
Fore
SplineSet
181.5 -106 m 29
 519.5 -106 l 25
 520.5 720 l 25
 278.5 720 l 25
 278.5 348 l 25
 519.5 349 l 25
 519.5 249 l 25
 181.5 250 l 25
 181.5 819 l 25
 617.5 819 l 25
 618.5 -205 l 25
 181.5 -205 l 25
 181.5 -106 l 29
EndSplineSet
Validated: 1
EndChar

StartChar: colon
Encoding: 58 58 79
Width: 800
Flags: HW
HStem: 218 98<349.5 450.5> 439 98<349.5 450.5>
VStem: 349.5 101<218 316 439 537>
LayerCount: 2
Back
Fore
SplineSet
349.5 316 m 29
 450.5 316 l 25
 450.5 218 l 25
 349.5 218 l 25
 349.5 316 l 29
349.5 537 m 25
 450.5 537 l 25
 450.5 439 l 25
 349.5 439 l 25
 349.5 537 l 25
EndSplineSet
Validated: 1
EndChar

StartChar: semicolon
Encoding: 59 59 80
Width: 800
Flags: HW
HStem: 84 98<313.5 385.5> 296 20G<385.5 486.5> 439 98<385.5 486.5>
VStem: 313.5 173<84 182> 385.5 101<182 316 439 537>
LayerCount: 2
Back
Fore
SplineSet
313.5 182 m 29xf0
 385.5 182 l 25
 385.5 316 l 25
 486.5 316 l 25xe8
 486.5 84 l 25
 313.5 84 l 25
 313.5 182 l 29xf0
385.5 537 m 25
 486.5 537 l 25
 486.5 439 l 25
 385.5 439 l 25
 385.5 537 l 25
EndSplineSet
Validated: 1
EndChar

StartChar: less
Encoding: 60 60 81
Width: 800
Flags: HW
HStem: 462 20G<517.147 553.5>
VStem: 244.5 309<312 328>
LayerCount: 2
Back
Fore
SplineSet
244.5 312 m 29
 553.5 482 l 25
 553.5 352 l 25
 380.5 256 l 25
 555.5 197 l 25
 555.5 78 l 25
 244.5 181 l 25
 244.5 312 l 29
EndSplineSet
Validated: 1
EndChar

StartChar: equal
Encoding: 61 61 82
Width: 800
Flags: HW
HStem: 150 101<173 627> 358 100<175 626>
LayerCount: 2
Back
Fore
SplineSet
173 251 m 29
 627 251 l 25
 627 150 l 25
 173 150 l 25
 173 251 l 29
175 458 m 25
 626 458 l 1
 626 358 l 25
 174 358 l 1
 175 458 l 25
EndSplineSet
Validated: 1
EndChar

StartChar: greater
Encoding: 62 62 83
Width: 800
Flags: HW
HStem: 471 20G<249.5 285.64>
VStem: 239.5 319
LayerCount: 2
Back
Fore
SplineSet
558.5 320 m 29
 560.5 189 l 25
 239.5 83 l 25
 240.5 204 l 25
 423.5 264 l 25
 249.5 361 l 25
 249.5 491 l 25
 558.5 320 l 29
EndSplineSet
Validated: 1
EndChar

StartChar: question
Encoding: 63 63 84
Width: 800
Flags: HW
HStem: -61 119<332 432> 235 101<432 526> 688 102<275 528>
VStem: 173 101<570 688> 332 100<-61 57 116 235> 526 100<336 688>
LayerCount: 2
Back
Fore
SplineSet
332 58 m 29
 432 57 l 25
 432 -61 l 25
 331 -61 l 25
 332 58 l 29
173 570 m 25
 173 790 l 25
 627 790 l 25
 626 234 l 25
 432 235 l 25
 432 116 l 25
 332 115 l 25
 331 335 l 25
 526 336 l 25
 528 688 l 25
 275 688 l 25
 274 570 l 25
 173 570 l 25
EndSplineSet
Validated: 1
EndChar

StartChar: at
Encoding: 64 64 85
Width: 800
Flags: HW
HStem: -117 100<171.5 727.5> 168 438<200.5 628.5> 689 101<171.5 628.5>
VStem: 71.5 100<-17 692> 199.5 528<168 606> 628.5 99<606 689>
LayerCount: 2
Back
Fore
SplineSet
727.5 -117 m 29xf4
 71.5 -117 l 25
 73.5 790 l 25
 727.5 790 l 25xf4
 728.5 168 l 25
 200.5 168 l 25
 199.5 606 l 25xf8
 628.5 606 l 25
 628.5 689 l 25
 171.5 692 l 25
 171.5 -17 l 25
 727.5 -16 l 25
 727.5 -117 l 29xf4
EndSplineSet
Validated: 1
EndChar

StartChar: bracketleft
Encoding: 91 91 86
Width: 800
Flags: HW
HStem: -162 119<363 555> 659 119<363 553>
VStem: 244 311<-162 -43 659 778> 244 119<-43 659>
LayerCount: 2
Back
Fore
SplineSet
553 778 m 29xe0
 554 659 l 1
 363 659 l 25
 363 -43 l 25xd0
 556 -43 l 25
 555 -162 l 25
 244 -162 l 25
 244 778 l 1
 553 778 l 29xe0
EndSplineSet
Validated: 1
EndChar

StartChar: backslash
Encoding: 92 92 87
Width: 800
Flags: HW
LayerCount: 2
Back
Fore
SplineSet
96.5 712 m 29
 178.5 763 l 25
 703.5 -100 l 25
 620.5 -150 l 25
 96.5 712 l 29
EndSplineSet
Validated: 1
EndChar

StartChar: bracketright
Encoding: 93 93 88
Width: 800
Flags: HW
HStem: -156 119<245.5 437.5> 665 119<246.5 436.5>
VStem: 245.5 309<-156 -37 665 784> 437.5 117<-37 665>
LayerCount: 2
Back
Fore
SplineSet
246.5 784 m 29xe0
 555.5 784 l 25
 554.5 -156 l 25
 244.5 -156 l 25
 245.5 -37 l 25xe0
 437.5 -37 l 25xd0
 436.5 665 l 25
 245.5 665 l 25
 246.5 784 l 29xe0
EndSplineSet
Validated: 1
EndChar

StartChar: asciicircum
Encoding: 94 94 89
Width: 800
Flags: HW
HStem: 515 304
LayerCount: 2
Back
Fore
SplineSet
354 819 m 29
 488 819 l 25
 613 515 l 25
 490 515 l 25
 410 680 l 25
 318 515 l 25
 187 515 l 1
 354 819 l 29
EndSplineSet
Validated: 1
EndChar

StartChar: underscore
Encoding: 95 95 90
Width: 800
Flags: HW
HStem: -206 98<173.5 626.5>
LayerCount: 2
Back
Fore
SplineSet
173.5 -108 m 29
 626.5 -107 l 25
 626.5 -205 l 25
 173.5 -206 l 25
 173.5 -108 l 29
EndSplineSet
Validated: 1
EndChar

StartChar: grave
Encoding: 96 96 91
Width: 800
Flags: HW
HStem: 628 190
VStem: 328.5 143
LayerCount: 2
Back
Fore
SplineSet
328.5 788 m 29
 380.5 818 l 25
 471.5 657 l 25
 419.5 628 l 25
 328.5 788 l 29
EndSplineSet
Validated: 1
EndChar

StartChar: braceleft
Encoding: 123 123 92
Width: 800
Flags: HW
HStem: -162 118<418 611> 204 191<190 300> 660 118<419 610>
VStem: 190 228<204 395> 300 310<-162 -44 660 778> 300 119<-44 204 395 660>
LayerCount: 2
Back
Fore
SplineSet
189 395 m 29xf0
 300 395 l 25xe4
 300 778 l 25
 610 778 l 25
 610 659 l 25xe8
 419 660 l 25xe4
 418 -44 l 25xf0
 611 -44 l 25
 611 -162 l 25
 300 -162 l 25xe8
 300 204 l 25xe4
 190 204 l 25
 189 395 l 29xf0
EndSplineSet
Validated: 1
EndChar

StartChar: bar
Encoding: 124 124 93
Width: 800
Flags: HW
VStem: 341 118<-168 772>
LayerCount: 2
Back
Fore
SplineSet
341 772 m 29
 459 772 l 25
 459 -168 l 25
 341 -168 l 25
 341 772 l 29
EndSplineSet
Validated: 1
EndChar

StartChar: braceright
Encoding: 125 125 94
Width: 800
Flags: HW
HStem: -156 118<189 381> 210 192<500 611> 666 118<190 381>
VStem: 189 311<-156 -38 666 784> 381 230<210 402> 381 119<-37 210 402 665>
LayerCount: 2
Back
Fore
SplineSet
189 -38 m 29xf0
 381 -37 l 25
 381 665 l 25xe4
 190 666 l 25
 190 784 l 25
 500 784 l 25xf0
 499 402 l 25
 611 402 l 25
 611 210 l 25xe8
 500 210 l 25xe4
 500 -156 l 25
 189 -156 l 25
 189 -38 l 29xf0
EndSplineSet
Validated: 1
EndChar

StartChar: asciitilde
Encoding: 126 126 95
Width: 800
Flags: HW
HStem: 182 194<473.5 626.5> 278 195<173.5 326.5> 279 97<327.5 473.5>
VStem: 173.5 154<376 473> 473.5 153<182 279>
LayerCount: 2
Back
Fore
SplineSet
173.5 473 m 29x58
 326.5 474 l 25
 327.5 376 l 25x38
 626.5 376 l 25
 626.5 182 l 25
 473.5 182 l 25x98
 473.5 279 l 25x38
 173.5 278 l 25
 173.5 473 l 29x58
EndSplineSet
Validated: 1
EndChar

StartChar: uni00A0
Encoding: 160 160 96
Width: 1024
Flags: H
LayerCount: 2
Fore
SplineSet
414 272 m 0
 542 239 620 228 542 238 c 1028
EndSplineSet
Validated: 35
EndChar
